<?xml version="1.0" encoding="UTF-8" standalone="yes"?>
<svg xmlns="http://www.w3.org/2000/svg" xmlns:xlink="http://www.w3.org/1999/xlink" width="87.669572mm" height="35.744025mm" version="1.1" viewBox="331.855530 146.724548 455.604736 185.755981">
  <!--
	Exported with Concepts: Smarter Sketching
	Version: 697
	iOS Version: 12.3
	https://concepts.app/
	-->
  <title>Untitled 3</title>
  <desc>Drawing exported from Concepts: Smarter Sketching</desc>
  <g id="Pen" opacity="1.000">
    <path id="STROKE_E4EEE624-4DEF-43D4-AF8D-89AD2BCF441E" opacity="1.000" fill="none" stroke="#6d6875" stroke-width="4.460" stroke-opacity="1.000" stroke-linecap="round" stroke-linejoin="round" d="M 358.750 203.533 Q 358.363 203.943 357.863 204.368 Q 357.439 205.633 359.184 214.318 Q 360.928 223.004 363.573 232.107 Q 366.217 241.209 368.719 248.338 Q 371.221 255.466 373.760 260.674 Q 376.299 265.882 377.194 267.480 "></path>
    <path id="STROKE_F810E9A3-A580-4257-AD6E-D981F41BEB73" opacity="1.000" fill="none" stroke="#6d6875" stroke-width="4.858" stroke-opacity="1.000" stroke-linecap="round" stroke-linejoin="round" d="M 343.971 207.236 Q 343.859 207.084 342.978 205.314 Q 342.098 203.545 341.896 202.376 Q 341.694 201.207 341.995 199.954 Q 342.296 198.700 347.379 195.683 Q 352.462 192.665 360.948 189.956 Q 369.433 187.246 374.149 185.969 Q 378.865 184.692 384.151 183.547 Q 389.436 182.402 393.227 181.761 Q 397.018 181.120 403.114 180.516 Q 409.210 179.912 413.081 179.990 Q 416.952 180.068 419.290 180.609 Q 421.627 181.151 423.242 182.146 Q 424.857 183.141 425.963 184.335 Q 427.069 185.529 427.682 187.929 Q 428.295 190.329 427.661 193.050 Q 427.026 195.771 424.373 199.946 Q 421.719 204.121 412.034 213.308 Q 402.350 222.494 397.048 226.947 Q 391.746 231.399 388.022 235.234 Q 384.298 239.068 382.720 241.392 Q 381.142 243.715 380.877 245.043 Q 380.612 246.371 380.822 246.979 Q 381.032 247.587 381.450 248.109 Q 381.868 248.630 397.740 251.658 Q 413.612 254.686 417.036 255.551 Q 420.459 256.416 422.956 257.419 Q 425.453 258.422 427.119 259.621 Q 428.784 260.819 429.631 262.081 Q 430.477 263.343 430.720 264.807 Q 430.962 266.271 430.140 267.977 Q 429.317 269.683 426.414 271.695 Q 423.510 273.708 420.375 275.109 Q 417.239 276.510 410.441 278.399 Q 403.643 280.288 396.610 281.101 Q 389.578 281.914 386.112 282.161 Q 382.647 282.408 379.639 282.587 Q 376.632 282.767 370.869 283.186 Q 365.106 283.606 358.940 283.784 Q 352.775 283.962 347.483 284.024 "></path>
    <path id="STROKE_4CBEC63E-16C0-4BF8-8203-468470C248D0" opacity="1.000" fill="none" stroke="#6d6875" stroke-width="5.966" stroke-opacity="1.000" stroke-linecap="round" stroke-linejoin="round" d="M 435.597 250.071 Q 435.690 250.752 435.187 252.959 Q 434.684 255.166 434.700 257.884 Q 434.716 260.602 435.193 262.302 Q 435.669 264.002 436.993 265.842 Q 438.318 267.682 441.177 268.969 Q 444.037 270.256 447.676 270.262 Q 451.315 270.268 455.026 269.122 Q 458.736 267.977 462.686 265.549 Q 466.637 263.121 469.757 260.015 Q 472.878 256.908 475.188 253.271 Q 477.499 249.634 478.340 245.484 Q 479.182 241.333 479.424 239.076 "></path>
    <path id="STROKE_8B1C8D5E-4CB3-4F1B-B1B1-6048DD868A02" opacity="1.000" fill="none" stroke="#6d6875" stroke-width="6.012" stroke-opacity="1.000" stroke-linecap="round" stroke-linejoin="round" d="M 489.961 183.935 Q 490.021 184.170 489.596 185.473 Q 489.171 186.776 489.082 193.957 Q 488.994 201.139 489.453 205.708 Q 489.911 210.277 491.281 217.996 Q 492.651 225.716 495.006 234.272 Q 497.362 242.828 498.776 248.207 Q 500.190 253.586 500.529 257.009 Q 500.868 260.433 500.906 261.194 "></path>
    <path id="STROKE_106FF84A-AB15-4312-89D8-6D3C25CE912E" opacity="1.000" fill="none" stroke="#6d6875" stroke-width="6.816" stroke-opacity="1.000" stroke-linecap="round" stroke-linejoin="round" d="M 482.614 236.557 Q 482.647 236.212 482.722 235.080 Q 482.797 233.948 483.117 232.921 Q 483.437 231.893 492.926 229.851 Q 502.415 227.808 510.134 226.838 Q 517.853 225.868 520.999 225.393 Q 524.145 224.919 526.561 224.454 "></path>
    <path id="STROKE_47B85CA9-4A04-4245-9C25-126FCAB9CE1D" opacity="1.000" fill="none" stroke="#6d6875" stroke-width="5.699" stroke-opacity="1.000" stroke-linecap="round" stroke-linejoin="round" d="M 581.655 226.440 Q 581.393 227.843 581.282 228.214 Q 581.170 228.585 580.809 232.503 Q 580.449 236.421 580.912 239.537 Q 581.375 242.653 582.441 244.573 Q 583.507 246.492 584.244 247.330 Q 584.981 248.168 586.069 248.714 Q 587.158 249.261 588.316 249.436 Q 589.474 249.611 591.252 248.815 Q 593.030 248.019 595.457 244.266 Q 597.884 240.512 599.003 237.325 Q 600.121 234.138 600.792 230.897 Q 601.462 227.656 601.729 225.680 Q 601.805 225.772 601.818 227.488 Q 601.831 229.204 602.608 233.074 Q 603.384 236.944 604.316 239.384 Q 605.247 241.825 606.726 244.055 Q 608.205 246.286 610.027 247.646 Q 611.850 249.006 613.548 249.429 Q 615.246 249.852 617.860 249.334 Q 620.474 248.817 624.761 244.684 Q 629.048 240.551 631.966 235.970 Q 634.885 231.390 636.775 226.407 Q 638.665 221.424 639.142 220.140 "></path>
    <path id="STROKE_186767AE-F267-4043-A8DC-8BB39FBF1E33" opacity="1.000" fill="none" stroke="#6d6875" stroke-width="5.995" stroke-opacity="1.000" stroke-linecap="round" stroke-linejoin="round" d="M 638.090 173.538 Q 638.012 173.520 636.667 173.436 Q 636.380 174.318 636.269 174.775 Q 636.158 175.231 636.476 180.156 Q 636.794 185.082 637.354 189.453 Q 637.914 193.825 639.122 200.787 Q 640.329 207.748 642.712 216.330 Q 645.096 224.911 646.393 228.796 Q 647.690 232.680 648.251 233.747 Q 648.813 234.813 649.702 235.411 Q 650.590 236.008 653.662 229.174 Q 656.733 222.339 658.363 218.226 Q 659.993 214.112 660.795 212.782 Q 661.598 211.452 662.044 211.106 Q 662.489 210.760 662.898 210.748 Q 663.308 210.737 663.474 210.887 Q 663.641 211.038 664.011 211.401 Q 664.381 211.765 666.154 215.315 Q 667.926 218.866 669.579 222.819 Q 671.232 226.772 673.436 230.232 Q 675.641 233.691 676.925 235.202 Q 678.208 236.712 680.873 238.073 Q 681.036 238.016 682.512 236.964 "></path>
    <path id="STROKE_747054DF-7CA7-4613-A055-5DB05D15DFE3" opacity="1.000" fill="none" stroke="#6d6875" stroke-width="6.892" stroke-opacity="1.000" stroke-linecap="round" stroke-linejoin="round" d="M 676.539 221.604 Q 676.163 221.198 675.550 215.589 Q 675.651 215.522 678.417 217.700 Q 681.184 219.878 686.265 223.985 Q 691.347 228.093 694.509 230.299 Q 697.671 232.506 700.461 233.507 Q 703.252 234.509 704.656 234.599 Q 706.061 234.689 707.777 234.648 "></path>
    <path id="STROKE_47604B7C-D68D-4419-AB62-F0231AD34E4B" opacity="1.000" fill="none" stroke="#6d6875" stroke-width="9.101" stroke-opacity="1.000" stroke-linecap="round" stroke-linejoin="round" d="M 717.652 204.920 Q 717.418 205.099 715.935 205.730 Q 714.451 206.362 712.578 207.870 Q 710.704 209.377 707.386 218.298 Q 704.068 227.219 698.811 245.474 Q 693.553 263.729 692.664 266.715 Q 691.775 269.700 688.442 282.344 Q 685.109 294.988 682.664 307.987 Q 680.218 320.986 679.729 323.487 "></path>
    <path id="STROKE_CD8D0ECF-318B-48BB-B332-1FA001ECCFDF" opacity="1.000" fill="none" stroke="#6d6875" stroke-width="4.802" stroke-opacity="1.000" stroke-linecap="round" stroke-linejoin="round" d="M 735.146 179.901 Q 735.056 179.044 734.375 175.903 Q 733.695 172.761 733.742 170.660 Q 733.789 168.558 734.345 167.071 Q 734.900 165.584 738.924 162.358 Q 742.949 159.132 746.834 157.309 Q 750.719 155.487 753.706 154.930 Q 756.693 154.373 758.583 154.518 Q 760.473 154.662 761.664 155.106 Q 762.854 155.549 764.432 157.817 Q 766.010 160.085 766.182 164.154 Q 766.354 168.223 764.821 174.695 Q 763.288 181.167 761.641 185.951 Q 759.994 190.736 757.726 197.250 Q 755.457 203.764 754.177 208.140 Q 752.896 212.516 752.411 217.414 Q 751.925 222.312 751.988 224.881 Q 752.051 227.451 752.934 229.640 Q 753.818 231.828 754.670 232.943 Q 755.522 234.057 757.835 235.615 Q 760.149 237.172 763.763 238.235 Q 767.376 239.298 769.760 239.802 "></path>
    <path id="STROKE_663B4467-6992-4C5A-B5D1-D21EDE308C9D" opacity="1.000" fill="none" stroke="#6d6875" stroke-width="4.022" stroke-opacity="1.000" stroke-linecap="round" stroke-linejoin="round" d="M 770.829 279.201 Q 771.061 278.740 772.362 274.484 Q 772.954 274.127 773.558 273.912 Q 774.162 273.697 775.325 273.232 "></path>
    <path id="STROKE_A3EEB49B-E7EE-44A6-9BFC-D75705E60834" opacity="1.000" fill="none" stroke="#6d6875" stroke-width="3.590" stroke-opacity="1.000" stroke-linecap="round" stroke-linejoin="round" d="M 771.287 275.154 L 771.635 275.483 Q 772.098 275.541 773.345 276.387 Q 774.591 277.233 775.089 277.666 Q 775.586 278.099 776.391 278.278 Q 777.195 278.457 777.650 278.400 Q 778.106 278.342 778.597 278.079 Q 779.088 277.816 779.447 277.360 Q 779.806 276.904 779.648 275.961 Q 779.320 275.776 777.561 275.595 Q 775.803 275.415 772.112 278.907 L 772.917 279.258 Q 772.954 279.575 778.635 277.506 Q 778.793 277.623 779.381 278.005 "></path>
    <path id="STROKE_147213A5-4435-448C-8EFD-347552855373" opacity="1.000" fill="none" stroke="#6d6875" stroke-width="3.972" stroke-opacity="1.000" stroke-linecap="round" stroke-linejoin="round" d="M 772.407 277.674 Q 772.131 277.571 770.782 275.856 Q 770.613 275.804 771.607 275.709 Q 772.601 275.614 773.325 275.918 Q 774.048 276.222 774.138 276.424 Q 774.228 276.626 774.150 276.969 Q 774.073 277.312 773.583 277.623 Q 773.094 277.935 772.399 278.085 L 771.559 278.272 "></path>
  </g>
</svg>