<?xml version="1.0" encoding="UTF-8" standalone="no"?><!DOCTYPE svg PUBLIC "-//W3C//DTD SVG 1.1//EN" "http://www.w3.org/Graphics/SVG/1.1/DTD/svg11.dtd"><svg width="100%" height="100%" viewBox="0 0 170 658" version="1.1" xmlns="http://www.w3.org/2000/svg" xmlns:xlink="http://www.w3.org/1999/xlink" xml:space="preserve" xmlns:serif="http://www.serif.com/" style="fill-rule:evenodd;clip-rule:evenodd;stroke-linejoin:round;stroke-miterlimit:2;"><path d="M106.4,102.9c-17.267,0 -31.267,-4.55 -42,-13.65c-10.733,-9.1 -16.1,-21.117 -16.1,-36.05c0,-16.333 5.717,-29.283 17.15,-38.85c11.433,-9.567 26.017,-14.35 43.75,-14.35c19.133,0 33.95,4.667 44.45,14c10.5,9.333 15.75,22.167 15.75,38.5c0,14.467 -5.717,26.483 -17.15,36.05c-11.433,9.567 -26.717,14.35 -45.85,14.35Zm-81.2,555.1c-6.533,-3.267 -12.133,-8.283 -16.8,-15.05c-4.667,-6.767 -7.467,-14.35 -8.4,-22.75c24.267,-25.667 40.95,-49.817 50.05,-72.45c9.1,-22.633 13.65,-50.75 13.65,-84.35l0,-193.2c0,-17.267 -3.267,-29.517 -9.8,-36.75c-6.533,-7.233 -20.533,-11.317 -42,-12.25c0,-17.733 2.567,-31.5 7.7,-41.3c23.333,0 47.483,-2.333 72.45,-7c24.967,-4.667 42.817,-10.033 53.55,-16.1c13.533,5.6 20.3,17.967 20.3,37.1l0,247.1c0,50.867 -14.117,94.967 -42.35,132.3c-28.233,37.333 -61.017,65.567 -98.35,84.7Z" style="fill-rule:nonzero;"/></svg>