<?xml version="1.0" encoding="UTF-8" standalone="no"?>
<!DOCTYPE svg PUBLIC "-//W3C//DTD SVG 1.1//EN" "http://www.w3.org/Graphics/SVG/1.1/DTD/svg11.dtd">
<svg width="100%" height="100%" viewBox="0 0 1280 800" version="1.1" xmlns="http://www.w3.org/2000/svg" xmlns:xlink="http://www.w3.org/1999/xlink" xml:space="preserve" xmlns:serif="http://www.serif.com/" style="fill-rule:evenodd;clip-rule:evenodd;stroke-linecap:round;stroke-linejoin:round;">
    <g transform="matrix(1,0,0,1,-4.59915,131.888)">
        <text x="242.69px" y="544px" style="font-family:'GlacialIndifference-Bold', 'Glacial Indifference';font-weight:700;font-size:192px;">Focusfile</text>
    </g>
    <g id="Logo" transform="matrix(2.05464,0,0,2.05464,400.659,-243.388)">
        <g id="STROKE_F84CFF9C-33E5-4F02-9537-E7100D9EC485" transform="matrix(0.954086,0,0,0.954086,5.34838,21.2459)">
            <path d="M140.861,157.5C139.591,157.129 137.09,156.521 133.358,155.676C129.626,154.83 125.856,154.327 122.049,154.166C118.242,154.005 115.132,153.962 112.719,154.038C110.306,154.113 107.524,154.384 104.372,154.851C101.22,155.319 98.62,155.79 96.571,156.266C94.523,156.742 92.355,157.357 90.069,158.11C87.783,158.863 85.919,159.532 84.475,160.119C83.032,160.706 81.838,161.221 80.893,161.664C79.948,162.107 79.424,162.353 79.322,162.401C79.22,162.449 78.287,162.911 76.522,163.785C74.757,164.66 72.667,165.885 70.251,167.461C67.835,169.037 65.984,170.304 64.698,171.262C63.411,172.22 61.635,173.658 59.371,175.575C57.106,177.493 55.023,179.537 53.122,181.707C51.22,183.878 49.872,185.464 49.078,186.465C48.283,187.467 47.705,188.216 47.342,188.712C46.98,189.207 46.5,189.874 45.904,190.712C45.308,191.55 44.682,192.488 44.026,193.527C43.37,194.566 42.86,195.383 42.495,195.976C42.131,196.57 41.543,197.64 40.731,199.186C39.919,200.733 39.207,202.14 38.596,203.408C37.985,204.677 37.077,206.812 35.871,209.814C34.666,212.816 33.61,216.235 32.703,220.071C31.796,223.907 31.196,227.346 30.902,230.388C30.608,233.43 30.443,235.711 30.407,237.229C30.371,238.747 30.373,240.172 30.412,241.505C30.451,242.837 30.51,244.346 30.588,246.032C30.667,247.718 30.93,250.14 31.378,253.298C31.826,256.456 32.527,259.69 33.48,262.999C34.433,266.308 35.234,268.733 35.885,270.274C36.535,271.814 37.026,273.086 37.359,274.091C37.691,275.095 38.752,277.27 40.543,280.614C42.333,283.958 43.972,286.684 45.46,288.791C46.948,290.897 48.319,292.735 49.574,294.304C50.829,295.873 52.111,297.342 53.419,298.711C54.728,300.079 55.642,301.016 56.162,301.521C56.683,302.027 57.108,302.435 57.438,302.746C57.767,303.057 58.242,303.492 58.862,304.05C59.481,304.609 60.054,305.112 60.58,305.559C61.107,306.007 61.476,306.318 61.69,306.493C61.903,306.669 62.137,306.859 62.391,307.063C62.645,307.268 63.277,307.752 64.288,308.514C65.3,309.277 66.332,310.039 67.386,310.8C68.439,311.562 69.909,312.501 71.795,313.617C73.682,314.733 75.155,315.596 76.215,316.205C77.275,316.813 79.203,317.715 81.999,318.909C84.795,320.103 87.119,321.003 88.969,321.608C90.82,322.214 93.028,322.875 95.593,323.591C98.158,324.308 101.373,324.903 105.238,325.376C109.103,325.848 112.386,326.112 115.085,326.169C117.784,326.226 120.766,326.086 124.031,325.749C127.296,325.412 130.011,325.085 132.179,324.768C134.346,324.45 137.184,323.749 140.693,322.664C144.202,321.579 146.801,320.683 148.493,319.977C150.184,319.27 151.597,318.63 152.732,318.057C153.868,317.483 154.982,316.971 156.074,316.519C157.167,316.069 159.348,314.79 162.617,312.683C165.886,310.577 168.342,308.837 169.985,307.463C171.627,306.089 173.153,304.792 174.562,303.573C175.972,302.353 177.811,300.476 180.08,297.942C182.349,295.409 184.299,293.063 185.932,290.906C187.565,288.749 189.337,286.009 191.248,282.686C193.158,279.363 194.711,276.172 195.907,273.112C197.103,270.051 197.965,267.68 198.495,265.998C199.025,264.316 199.64,262.075 200.338,259.276C201.037,256.478 201.633,252.827 202.125,248.323C202.617,243.82 202.722,239.567 202.442,235.564C202.161,231.56 201.825,228.533 201.433,226.483C201.042,224.433 200.733,222.734 200.505,221.385C200.277,220.037 199.684,217.82 198.727,214.735C197.769,211.651 196.854,209.073 195.979,207.001C195.105,204.93 194.277,203.135 193.495,201.615C192.714,200.095 192.128,198.991 191.739,198.302C191.349,197.613 191.071,197.117 190.905,196.815C190.739,196.514 190.323,195.821 189.657,194.735C188.99,193.65 188.336,192.644 187.693,191.716C187.051,190.789 186.534,190.054 186.141,189.512C185.748,188.97 185.461,188.579 185.28,188.341C185.098,188.102 184.972,187.948 184.901,187.879C184.83,187.81 184.747,187.658 184.653,187.423C184.558,187.188 183.639,186.117 181.896,184.208C180.153,182.3 178.847,180.786 177.978,179.668C177.11,178.551 175.191,176.812 172.221,174.454C169.252,172.095 166.935,170.347 165.271,169.208C163.607,168.07 161.877,166.934 160.081,165.802C158.285,164.67 155.84,163.404 152.747,162.007C149.653,160.609 147.215,159.614 145.434,159.021C143.653,158.428 141.843,157.806 140.004,157.154C138.166,156.501 135.531,155.916 132.101,155.399C128.67,154.882 125.974,154.51 124.012,154.284C122.049,154.057 119.845,153.963 117.399,153.999C114.953,154.036 112.95,154.076 111.39,154.118C109.829,154.16 107.432,154.392 104.197,154.815C100.962,155.238 97.972,155.835 95.228,156.605C92.485,157.375 90.49,157.966 89.245,158.378C88.001,158.79 86.8,159.224 85.643,159.681C84.485,160.138 83.402,160.559 82.391,160.945C81.381,161.33 79.706,162.139 77.367,163.372C75.029,164.605 72.578,166.002 70.014,167.563" style="fill:none;stroke:black;stroke-width:10.13px;"/>
        </g>
        <g id="STROKE_865C6356-3F95-4ABE-AFA6-513EF3D1A7FE" transform="matrix(0.954086,0,0,0.954086,5.34838,21.2459)">
            <path d="M73.956,193.678C72.814,194.039 71.341,194.818 69.537,196.016C67.735,197.215 66.335,198.475 65.338,199.797C64.342,201.119 63.514,202.329 62.854,203.426C62.195,204.523 61.581,206.074 61.012,208.079C60.444,210.083 60.166,211.984 60.179,213.78C60.192,215.577 60.439,217.37 60.919,219.159C61.4,220.949 62.004,222.456 62.733,223.682C63.462,224.907 64.278,226.119 65.182,227.318C66.086,228.517 67.321,229.718 68.888,230.921C70.455,232.124 72.142,233.032 73.947,233.645C75.753,234.259 77.364,234.692 78.781,234.946C80.197,235.199 81.952,235.186 84.046,234.906C86.14,234.627 87.773,234.293 88.946,233.905C90.119,233.518 91.34,232.908 92.61,232.075C93.879,231.242 94.879,230.49 95.609,229.818C96.338,229.147 97.15,228.311 98.042,227.309C98.935,226.308 99.857,224.917 100.809,223.135C101.761,221.354 102.399,219.408 102.723,217.297C103.047,215.187 103.102,213.216 102.888,211.385C102.673,209.554 102.26,207.796 101.648,206.109C101.036,204.423 100.266,202.951 99.338,201.691C98.409,200.432 97.484,199.319 96.563,198.351C95.64,197.384 94.271,196.333 92.453,195.198C90.636,194.064 88.694,193.299 86.628,192.905C84.563,192.51 82.985,192.289 81.896,192.242C80.808,192.195 79.425,192.313 77.749,192.597C76.073,192.881 74.554,193.356 73.19,194.02C71.827,194.685 70.687,195.291 69.771,195.838C68.855,196.385 67.632,197.399 66.102,198.88C64.572,200.361 63.042,202.839 61.511,206.313" style="fill:none;stroke:black;stroke-width:10.2px;"/>
        </g>
        <g id="STROKE_C30B0B07-D54F-4663-94C5-C089052603D5" transform="matrix(0.954086,0,0,0.954086,5.34838,21.2459)">
            <path d="M142.907,205.996C142.876,205.843 141.765,205.834 139.574,205.97C137.383,206.106 135.542,206.451 134.053,207.005C132.564,207.558 130.993,208.324 129.34,209.304C127.687,210.283 126.226,211.497 124.957,212.945C123.688,214.393 122.608,215.951 121.715,217.619C120.823,219.285 120.213,221.086 119.885,223.02C119.557,224.954 119.391,226.517 119.387,227.708C119.383,228.9 119.589,230.374 120.006,232.131C120.422,233.888 120.931,235.43 121.532,236.756C122.133,238.083 123,239.416 124.134,240.756C125.268,242.095 126.203,243.056 126.938,243.638C127.673,244.221 128.241,244.65 128.641,244.926C129.041,245.202 129.344,245.385 129.549,245.475C129.755,245.565 129.871,245.64 129.899,245.701C129.926,245.761 130.819,246.195 132.578,247.003C134.337,247.811 136.251,248.339 138.318,248.587C140.386,248.834 142.597,248.745 144.952,248.321C147.307,247.896 149.366,247.135 151.128,246.038C152.89,244.942 154.236,243.995 155.166,243.197C156.096,242.398 157.099,241.263 158.176,239.789C159.253,238.316 160.125,236.751 160.793,235.096C161.461,233.44 161.896,231.557 162.099,229.448C162.301,227.339 162.271,225.478 162.007,223.867C161.743,222.255 161.238,220.621 160.49,218.964C159.743,217.307 158.975,215.917 158.188,214.793C157.401,213.669 156.386,212.535 155.143,211.392C153.9,210.249 152.38,209.215 150.581,208.289C148.781,207.362 147.074,206.732 145.459,206.399C143.843,206.066 142.035,205.893 140.035,205.881C138.035,205.869 135.874,206.305 133.551,207.191C131.228,208.076 128.858,209.493 126.442,211.441" style="fill:none;stroke:black;stroke-width:10.2px;"/>
        </g>
        <g id="STROKE_EED993A3-5773-46FC-AA9F-28699586C062" transform="matrix(0.954086,0,0,0.954086,5.34838,21.2459)">
            <path d="M108.155,213.685L108.809,213.861C109.057,213.965 109.474,214.098 110.059,214.26C110.643,214.421 111.877,214.735 113.76,215.204C113.827,215.154 114.722,215.398 116.443,215.937" style="fill:none;stroke:black;stroke-width:10.2px;"/>
        </g>
        <g id="STROKE_8282335D-66C3-4080-B815-1F347917D187" transform="matrix(0.954086,0,0,0.954086,5.34838,21.2459)">
            <path d="M64.139,215.202L65.562,214.497C66.117,214.161 66.734,213.803 67.414,213.424C68.093,213.045 69.137,212.476 70.545,211.717C71.953,210.957 73.137,210.334 74.099,209.849C75.061,209.362 76.353,208.713 77.978,207.901C79.602,207.089 81.107,206.357 82.491,205.703C83.876,205.049 85.02,204.529 85.922,204.143C86.824,203.757 87.892,203.333 89.125,202.872C90.359,202.411 91.36,202.041 92.129,201.763C92.897,201.485 94.047,201.085 95.579,200.564C97.11,200.043 98.701,199.536 100.353,199.045C102.005,198.553 103.545,198.131 104.975,197.781C106.403,197.43 107.459,197.179 108.141,197.029C108.824,196.878 109.75,196.703 110.922,196.502C112.093,196.302 113.443,196.111 114.971,195.931C116.5,195.75 117.465,195.642 117.866,195.606C118.268,195.57 119.393,195.407 121.242,195.119C121.911,195.072 122.445,195.033 122.844,195.002C123.243,194.971 123.536,194.938 123.725,194.902C123.914,194.866 124.787,194.805 126.346,194.719" style="fill:none;stroke:black;stroke-width:10.2px;"/>
        </g>
        <g id="STROKE_CA5E82C7-4B7F-4613-AA37-0AFC5F03DAFC" transform="matrix(0.954086,0,0,0.954086,5.34838,21.2459)">
            <path d="M162.073,234.794C163.13,233.854 164.022,233.107 164.75,232.553C165.478,231.999 165.969,231.62 166.224,231.415C166.478,231.211 167.174,230.677 168.311,229.813C169.448,228.949 170.795,228.011 172.351,227.001C173.907,225.991 175.169,225.206 176.136,224.647C177.104,224.087 178.234,223.493 179.527,222.864C180.821,222.235 181.808,221.774 182.489,221.481C183.169,221.189 185.135,220.568 188.387,219.62C191.639,218.671 193.701,218.146 194.575,218.043L198.601,217.265" style="fill:none;stroke:black;stroke-width:10.77px;"/>
        </g>
        <g id="STROKE_5B68234E-E84E-40D7-95ED-19AF3105360B" transform="matrix(0.954086,0,0,0.954086,5.34838,21.2459)">
            <path d="M57.439,253.717C57.7,254.06 57.896,254.3 58.027,254.436C58.158,254.572 58.4,254.844 58.755,255.252C59.109,255.659 59.369,255.979 59.534,256.21C59.699,256.441 59.952,256.719 60.292,257.042C60.632,257.365 61.05,257.741 61.544,258.171C62.039,258.601 62.37,258.903 62.536,259.077C62.703,259.251 62.956,259.51 63.296,259.854C63.637,260.199 63.844,260.388 63.919,260.424C63.993,260.459 64.238,260.66 64.654,261.027C65.07,261.394 65.335,261.608 65.447,261.669C65.559,261.73 65.792,261.997 66.145,262.471C66.497,262.945 66.701,263.228 66.755,263.322L67.369,263.921" style="fill:none;stroke:black;stroke-width:10.76px;"/>
        </g>
        <g id="STROKE_67FA6D54-5790-40BC-A3FC-020290AA6328" transform="matrix(0.954086,0,0,0.954086,5.34838,21.2459)">
            <path d="M65.524,265.783L64.98,265.912C64.709,265.938 64.378,266.049 63.985,266.246C63.592,266.444 63.072,266.688 62.425,266.98C61.777,267.272 61.378,267.444 61.228,267.494C61.078,267.545 60.711,267.703 60.127,267.97C59.542,268.236 58.995,268.476 58.485,268.69C57.975,268.904 57.471,269.108 56.974,269.303" style="fill:none;stroke:black;stroke-width:10.76px;"/>
        </g>
        <g id="STROKE_D3D8B5CC-5876-4E88-B229-66CF283FE531" transform="matrix(0.954086,0,0,0.954086,5.34838,21.2459)">
            <path d="M141.178,289.388L140.862,289.359L140.451,289.358C140.112,289.368 139.248,289.343 137.86,289.281C137.621,289.249 136.813,289.187 135.434,289.095C134.056,289.002 132.673,288.895 131.285,288.772C129.898,288.649 128.578,288.516 127.325,288.373C126.072,288.231 124.605,288.056 122.923,287.85C121.242,287.643 119.797,287.463 118.589,287.31C117.382,287.157 115.291,286.887 112.317,286.501C109.343,286.116 106.53,285.736 103.879,285.362C101.227,284.988 99.22,284.703 97.856,284.507C96.492,284.311 95.521,284.173 94.942,284.093C94.363,284.013 93.76,283.935 93.131,283.858C92.502,283.782 91.73,283.678 90.814,283.548C89.899,283.417 88.496,283.204 86.605,282.909C84.713,282.614 83.211,282.385 82.098,282.222C80.985,282.06 79.999,281.925 79.142,281.818C78.284,281.711 77.072,281.553 75.505,281.346" style="fill:none;stroke:black;stroke-width:7.93px;"/>
        </g>
    </g>
</svg>
