<?xml version="1.0" encoding="UTF-8" standalone="yes"?>
<svg xmlns="http://www.w3.org/2000/svg" xmlns:xlink="http://www.w3.org/1999/xlink" width="35.652247mm" height="36.236767mm" version="1.1" viewBox="415.566803 106.077271 185.279022 188.316681">
  <!--
	Exported with Concepts: Smarter Sketching
	Version: 697
	iOS Version: 12.3
	https://concepts.app/
	-->
  <title>Untitled 3</title>
  <desc>Drawing exported from Concepts: Smarter Sketching</desc>
  <g id="Pen" opacity="1.000" display="none">
    <path id="STROKE_1D82F64C-C036-4A12-87FA-E33B56AEA806" opacity="1.000" display="none" fill="none" stroke="#c585b3" stroke-width="4.066" stroke-opacity="1.000" stroke-linecap="round" stroke-linejoin="round" d="M 456.318 163.972 Q 456.214 164.168 455.850 164.499 Q 455.485 164.830 455.227 165.307 Q 454.968 165.784 454.824 166.149 Q 454.681 166.513 454.484 168.313 Q 454.288 170.112 454.276 172.042 Q 454.264 173.972 454.250 177.347 Q 454.235 180.721 454.118 188.292 Q 454.000 195.863 453.919 199.801 Q 453.839 203.738 453.519 208.435 Q 453.199 213.133 453.002 215.687 Q 452.804 218.241 452.618 220.559 Q 452.431 222.876 452.080 226.451 Q 451.728 230.025 450.824 234.957 Q 449.919 239.889 449.123 244.354 Q 448.327 248.820 447.703 253.494 Q 447.080 258.168 446.722 260.654 Q 446.365 263.139 445.987 266.017 Q 445.610 268.895 445.327 271.344 Q 445.045 273.794 444.746 276.987 Q 444.448 280.179 444.378 284.004 Q 444.308 287.828 444.430 288.216 Q 444.551 288.605 444.618 288.694 Q 444.684 288.784 444.933 288.909 Q 445.183 289.035 445.482 289.081 Q 445.782 289.127 445.973 289.116 Q 446.164 289.105 446.328 289.062 Q 446.492 289.018 446.646 288.986 Q 446.800 288.955 446.846 288.932 Q 446.891 288.910 448.913 288.429 Q 450.935 287.948 453.616 287.486 Q 456.296 287.023 460.367 286.173 Q 464.437 285.323 466.743 284.934 Q 469.049 284.546 470.180 284.371 Q 471.311 284.195 471.955 284.069 Q 472.598 283.943 481.074 282.968 Q 489.549 281.992 494.076 281.568 Q 498.604 281.144 500.602 280.962 Q 502.601 280.780 503.670 280.663 Q 504.739 280.547 511.403 280.018 Q 518.066 279.488 523.128 279.266 Q 528.189 279.043 532.442 278.873 Q 536.694 278.704 538.843 278.587 Q 540.992 278.470 548.487 278.384 Q 555.982 278.298 559.848 278.323 Q 563.714 278.348 569.915 278.251 Q 576.116 278.154 583.966 278.056 Q 591.815 277.959 595.755 277.971 Q 599.695 277.983 602.038 278.002 Q 604.381 278.021 608.142 278.171 Q 611.903 278.322 614.971 278.483 Q 618.040 278.645 620.563 278.773 Q 623.085 278.901 626.399 279.093 Q 629.713 279.285 632.829 279.538 Q 635.944 279.790 637.774 279.978 Q 639.603 280.167 642.791 280.144 Q 645.979 280.122 646.887 279.998 "></path>
    <path id="STROKE_EA20804E-574C-4B8A-91C8-A73CFACE666D" opacity="1.000" display="none" fill="none" stroke="#c585b3" stroke-width="4.125" stroke-opacity="1.000" stroke-linecap="round" stroke-linejoin="round" d="M 458.821 161.081 L 458.927 160.936 Q 459.029 160.858 459.921 160.550 Q 460.812 160.241 463.714 159.694 Q 466.615 159.147 469.407 158.528 Q 472.198 157.908 477.019 157.190 Q 481.840 156.472 486.571 156.132 Q 491.302 155.792 493.604 155.771 Q 495.906 155.750 497.128 155.746 Q 498.350 155.741 499.799 155.751 Q 501.248 155.761 507.135 155.839 Q 513.022 155.917 516.290 155.859 Q 519.559 155.801 521.180 155.716 Q 522.802 155.631 526.460 155.338 Q 530.119 155.045 532.743 154.844 Q 535.367 154.643 537.687 154.515 Q 540.008 154.386 541.464 154.336 Q 542.921 154.285 544.492 154.247 Q 546.064 154.209 547.436 154.196 Q 548.809 154.183 551.393 154.184 Q 553.976 154.186 555.986 154.183 Q 557.996 154.181 567.047 154.188 Q 576.097 154.195 581.186 154.230 Q 586.276 154.266 591.169 154.370 Q 596.063 154.474 603.132 155.070 Q 610.202 155.665 615.737 156.341 Q 621.272 157.016 623.930 157.428 Q 626.589 157.841 630.809 158.293 Q 635.028 158.745 637.572 158.880 Q 640.115 159.015 641.958 159.134 Q 643.802 159.253 645.807 159.432 Q 647.813 159.610 648.910 159.724 Q 650.007 159.838 650.985 159.948 Q 651.964 160.057 653.101 160.136 Q 654.238 160.216 654.945 160.154 Q 655.652 160.092 655.995 159.991 Q 656.339 159.890 657.287 159.258 "></path>
    <path id="STROKE_155E498F-7A4B-4B3B-BE83-9E2FF8E155EC" opacity="1.000" display="none" fill="none" stroke="#c585b3" stroke-width="3.684" stroke-opacity="1.000" stroke-linecap="round" stroke-linejoin="round" d="M 659.085 158.023 Q 659.099 158.085 658.588 158.204 Q 658.583 158.211 658.305 161.099 Q 658.027 163.988 657.664 168.807 Q 657.302 173.626 657.015 178.284 Q 656.728 182.942 656.516 186.533 Q 656.304 190.124 656.177 191.820 Q 656.050 193.516 655.947 194.833 Q 655.844 196.150 655.445 199.791 Q 655.046 203.432 654.260 208.431 Q 653.474 213.429 652.743 218.999 Q 652.013 224.569 651.548 228.662 Q 651.083 232.754 650.758 235.178 Q 650.433 237.602 650.182 239.626 Q 649.930 241.650 649.631 244.080 Q 649.332 246.510 649.167 250.485 Q 649.002 254.461 649.157 257.602 Q 649.313 260.743 649.508 264.883 Q 649.703 269.024 649.783 271.095 Q 649.864 273.166 649.758 274.933 Q 649.652 276.700 649.690 277.549 Q 649.729 278.399 649.841 278.780 Q 649.953 279.160 650.139 279.315 Q 650.326 279.470 650.539 279.349 Q 650.751 279.228 651.130 279.017 "></path>
    <path id="STROKE_B85EC45A-67C9-479C-BAAE-E7E8F6A7B5E5" opacity="1.000" display="none" fill="none" stroke="#c585b3" stroke-width="3.335" stroke-opacity="1.000" stroke-linecap="round" stroke-linejoin="round" d="M 462.504 270.095 Q 462.046 269.281 461.969 269.067 Q 461.891 268.853 461.856 267.158 Q 461.821 265.462 462.581 263.031 Q 463.341 260.600 465.452 256.766 "></path>
    <path id="STROKE_78856DB7-2489-4BF3-AD15-EE7D44DA0084" opacity="1.000" display="none" fill="none" stroke="#c585b3" stroke-width="4.040" stroke-opacity="1.000" stroke-linecap="round" stroke-linejoin="round" d="M 470.731 245.935 Q 470.758 245.810 470.902 245.263 Q 471.046 244.716 471.721 243.508 Q 472.397 242.300 473.625 240.016 Q 474.854 237.732 475.119 237.234 "></path>
    <path id="STROKE_396FDB26-50D4-4AE1-91D8-ED6B9C8F802B" opacity="1.000" display="none" fill="none" stroke="#c585b3" stroke-width="3.268" stroke-opacity="1.000" stroke-linecap="round" stroke-linejoin="round" d="M 478.635 228.760 Q 478.612 228.588 478.917 226.736 Q 479.221 224.884 479.476 223.922 Q 479.731 222.961 479.992 222.142 Q 480.254 221.324 480.434 220.822 Q 480.614 220.320 481.557 217.600 Q 482.499 214.880 482.735 214.169 "></path>
    <path id="STROKE_D4ACFF63-55FB-44AF-8078-A265352191BA" opacity="1.000" display="none" fill="none" stroke="#c585b3" stroke-width="3.769" stroke-opacity="1.000" stroke-linecap="round" stroke-linejoin="round" d="M 486.331 205.388 L 486.298 205.264 L 486.323 204.958 Q 486.314 204.886 487.100 203.007 Q 487.887 201.128 488.100 200.673 "></path>
    <path id="STROKE_97E402E7-055D-43A1-AAA7-7998A083DC9C" opacity="1.000" display="none" fill="none" stroke="#c585b3" stroke-width="3.327" stroke-opacity="1.000" stroke-linecap="round" stroke-linejoin="round" d="M 492.682 190.824 Q 492.688 190.700 493.185 189.821 Q 493.682 188.942 494.122 188.360 Q 494.561 187.778 494.781 187.500 Q 495.002 187.222 495.293 186.893 Q 495.584 186.564 495.689 186.454 Q 495.795 186.344 496.246 185.818 Q 496.698 185.292 497.069 184.847 "></path>
    <path id="STROKE_6D471A9E-3AC9-4832-9E8C-928C68A35D3B" opacity="1.000" display="none" fill="none" stroke="#c585b3" stroke-width="3.322" stroke-opacity="1.000" stroke-linecap="round" stroke-linejoin="round" d="M 499.960 181.843 Q 500.377 181.780 501.998 181.210 Q 503.619 180.641 504.807 180.282 Q 505.996 179.924 506.649 179.712 "></path>
    <path id="STROKE_ABB1B543-4398-4B75-8492-98B248F9930D" opacity="1.000" display="none" fill="none" stroke="#c585b3" stroke-width="3.320" stroke-opacity="1.000" stroke-linecap="round" stroke-linejoin="round" d="M 511.935 178.116 Q 511.994 178.209 512.359 178.275 Q 512.724 178.341 513.696 179.120 Q 514.668 179.899 515.228 180.436 Q 515.789 180.973 516.082 181.198 Q 516.375 181.423 517.433 182.025 Q 518.491 182.627 519.726 183.750 Q 520.960 184.873 521.126 185.047 "></path>
    <path id="STROKE_06520A5C-0D20-4FE7-8AD3-7EDC37F16A76" opacity="1.000" display="none" fill="none" stroke="#c585b3" stroke-width="3.307" stroke-opacity="1.000" stroke-linecap="round" stroke-linejoin="round" d="M 524.219 190.937 Q 524.238 190.977 524.355 192.262 Q 524.472 193.547 524.606 194.120 Q 524.739 194.693 524.991 195.357 Q 525.243 196.021 525.787 197.081 "></path>
    <path id="STROKE_F60957ED-2E8E-4360-A987-9FF8141A61D1" opacity="1.000" display="none" fill="none" stroke="#c585b3" stroke-width="3.345" stroke-opacity="1.000" stroke-linecap="round" stroke-linejoin="round" d="M 526.743 202.303 Q 526.871 202.522 527.133 204.474 Q 527.395 206.426 527.438 207.494 Q 527.480 208.562 527.730 209.578 Q 527.980 210.593 528.212 211.542 Q 528.444 212.490 528.628 213.134 "></path>
    <path id="STROKE_573A84E6-4CEB-4BB2-AFC9-92DCC0F1C1D8" opacity="1.000" display="none" fill="none" stroke="#c585b3" stroke-width="3.282" stroke-opacity="1.000" stroke-linecap="round" stroke-linejoin="round" d="M 529.865 217.395 Q 529.857 217.739 529.753 218.198 Q 529.649 218.657 529.549 219.588 Q 529.448 220.519 529.451 221.159 Q 529.454 221.799 529.447 222.120 Q 529.439 222.442 529.554 223.075 Q 529.669 223.709 529.807 224.353 "></path>
    <path id="STROKE_679970C1-9BA9-480D-97FE-8A4764045B77" opacity="1.000" display="none" fill="none" stroke="#c585b3" stroke-width="3.823" stroke-opacity="1.000" stroke-linecap="round" stroke-linejoin="round" d="M 531.102 229.769 Q 531.140 229.953 531.265 230.743 Q 531.391 231.532 531.779 232.328 Q 532.167 233.124 532.505 234.239 Q 532.843 235.353 533.044 236.026 "></path>
    <path id="STROKE_1F00203F-56CF-41ED-956D-6FF3C4E933C7" opacity="1.000" display="none" fill="none" stroke="#c585b3" stroke-width="3.307" stroke-opacity="1.000" stroke-linecap="round" stroke-linejoin="round" d="M 536.359 243.745 L 536.472 244.028 Q 536.540 244.294 536.700 244.561 Q 536.860 244.829 537.084 245.114 Q 537.309 245.399 537.357 245.436 Q 537.405 245.472 538.985 247.375 Q 540.565 249.279 540.912 249.668 "></path>
    <path id="STROKE_241EBFFB-D483-4398-AB44-2876AC16A58E" opacity="1.000" display="none" fill="none" stroke="#c585b3" stroke-width="3.318" stroke-opacity="1.000" stroke-linecap="round" stroke-linejoin="round" d="M 548.550 254.156 Q 548.814 254.368 548.823 254.382 Q 548.831 254.397 549.102 254.605 Q 549.373 254.814 549.666 254.958 Q 549.959 255.102 549.995 255.134 Q 550.030 255.166 552.398 254.900 Q 554.765 254.634 555.238 254.517 "></path>
    <path id="STROKE_DE358DFF-4915-4A21-A720-6128E54D5FE1" opacity="1.000" display="none" fill="none" stroke="#c585b3" stroke-width="3.261" stroke-opacity="1.000" stroke-linecap="round" stroke-linejoin="round" d="M 559.345 251.210 Q 559.403 251.210 559.672 251.155 Q 559.940 251.099 560.382 250.847 Q 560.823 250.594 562.747 249.215 "></path>
    <path id="STROKE_8A3B5E32-06B3-472D-9D06-109BC1B56EF5" opacity="1.000" display="none" fill="none" stroke="#c585b3" stroke-width="3.704" stroke-opacity="1.000" stroke-linecap="round" stroke-linejoin="round" d="M 566.062 245.374 Q 566.143 245.326 566.305 244.959 Q 566.467 244.592 566.956 243.943 Q 567.445 243.293 567.797 242.723 Q 568.149 242.153 568.282 241.482 Q 568.416 240.810 568.508 240.126 "></path>
    <path id="STROKE_35228AF7-768D-4D4E-A3B0-CFCC63EC23C3" opacity="1.000" display="none" fill="none" stroke="#c585b3" stroke-width="3.875" stroke-opacity="1.000" stroke-linecap="round" stroke-linejoin="round" d="M 566.149 231.312 Q 566.068 231.108 565.969 230.316 Q 565.869 229.523 565.882 229.079 Q 565.896 228.636 566.086 228.342 Q 566.277 228.048 566.738 227.104 "></path>
    <path id="STROKE_7E6CE372-B50C-4775-BABA-253EB9279889" opacity="1.000" display="none" fill="none" stroke="#c585b3" stroke-width="3.290" stroke-opacity="1.000" stroke-linecap="round" stroke-linejoin="round" d="M 566.818 219.585 Q 566.835 219.533 567.148 218.677 Q 567.460 217.822 568.469 216.828 Q 569.478 215.835 569.853 215.491 "></path>
    <path id="STROKE_734E51FA-54E8-41B9-9B24-AB3337FC5A5D" opacity="1.000" display="none" fill="none" stroke="#c585b3" stroke-width="3.306" stroke-opacity="1.000" stroke-linecap="round" stroke-linejoin="round" d="M 573.765 206.202 Q 573.912 206.133 574.287 205.561 Q 574.662 204.989 575.373 204.320 Q 576.084 203.651 576.660 203.389 Q 577.235 203.127 577.642 202.917 "></path>
    <path id="STROKE_CB61526E-1C04-4A72-B12D-14CD9A9DE039" opacity="1.000" display="none" fill="none" stroke="#c585b3" stroke-width="3.325" stroke-opacity="1.000" stroke-linecap="round" stroke-linejoin="round" d="M 584.359 199.719 Q 584.622 199.703 585.785 199.299 Q 586.948 198.895 587.502 198.683 "></path>
    <path id="STROKE_9611498E-DA3F-44AE-9A4B-88B3A4991E8A" opacity="1.000" display="none" fill="none" stroke="#c585b3" stroke-width="3.327" stroke-opacity="1.000" stroke-linecap="round" stroke-linejoin="round" d="M 593.040 195.873 Q 593.102 195.781 593.426 195.550 Q 593.751 195.320 594.013 195.197 Q 594.276 195.075 594.399 195.052 Q 594.522 195.028 595.255 194.867 Q 595.988 194.706 596.665 194.557 "></path>
    <path id="STROKE_807B97D7-DEAF-4238-AAD7-0CC6CD95F756" opacity="1.000" display="none" fill="none" stroke="#c585b3" stroke-width="4.004" stroke-opacity="1.000" stroke-linecap="round" stroke-linejoin="round" d="M 601.052 182.576 Q 600.987 182.599 599.983 181.615 Q 600.154 181.613 602.216 183.734 Q 604.278 185.855 605.600 187.323 Q 606.921 188.791 607.538 189.356 Q 608.155 189.921 609.758 191.101 Q 611.361 192.282 612.313 192.891 Q 613.265 193.500 614.378 194.180 Q 615.492 194.861 616.359 195.285 Q 617.226 195.709 617.437 195.712 Q 617.647 195.715 616.154 194.593 Q 614.660 193.471 612.498 192.120 Q 610.337 190.770 609.109 190.054 Q 607.882 189.339 606.672 188.261 Q 605.462 187.183 603.079 184.971 Q 600.697 182.759 599.362 181.305 Q 598.027 179.850 597.592 179.351 "></path>
    <path id="STROKE_30CC3170-D6C3-48F8-A1ED-356AF84225F9" opacity="1.000" display="none" fill="none" stroke="#c585b3" stroke-width="3.527" stroke-opacity="1.000" stroke-linecap="round" stroke-linejoin="round" d="M 602.483 199.552 Q 602.403 199.168 605.337 194.676 Q 608.271 190.184 610.277 187.261 Q 612.283 184.338 613.325 182.783 Q 614.367 181.228 615.072 180.116 Q 615.776 179.003 616.042 178.632 Q 616.307 178.260 616.427 178.126 Q 616.548 177.993 616.695 177.992 Q 616.815 178.200 615.267 179.592 Q 613.719 180.983 610.654 185.540 Q 607.590 190.097 607.208 190.684 "></path>
    <path id="STROKE_157371EC-3669-4DAB-AD99-457928364C1C" opacity="1.000" display="none" fill="none" stroke="#c585b3" stroke-width="3.842" stroke-opacity="1.000" stroke-linecap="round" stroke-linejoin="round" d="M 551.729 253.508 L 551.811 253.562 Q 551.923 253.569 552.070 253.633 Q 552.218 253.697 552.317 253.762 Q 552.417 253.828 552.741 254.197 Q 553.065 254.565 553.134 255.050 Q 553.203 255.535 553.082 255.963 Q 552.961 256.392 552.854 256.536 Q 552.747 256.680 552.527 256.959 Q 552.306 257.238 551.520 257.609 Q 550.734 257.979 549.747 257.938 Q 548.760 257.896 547.917 257.345 Q 547.076 256.795 546.638 256.076 Q 546.200 255.357 546.136 254.705 Q 546.073 254.053 546.455 253.289 Q 546.838 252.524 547.886 251.706 Q 548.935 250.888 550.197 250.541 Q 551.459 250.193 552.458 250.274 Q 553.458 250.356 554.153 250.731 Q 554.847 251.106 555.128 251.420 Q 555.408 251.734 555.548 252.035 Q 555.689 252.337 555.720 252.692 Q 555.752 253.047 555.755 253.250 Q 555.759 253.454 555.627 253.776 Q 555.494 254.098 555.273 254.408 Q 555.052 254.718 554.644 255.051 Q 554.237 255.385 553.959 255.536 Q 553.682 255.687 553.425 255.824 Q 553.169 255.960 552.123 256.208 Q 551.077 256.455 550.369 256.381 Q 549.660 256.306 549.303 256.168 Q 548.945 256.029 548.725 255.738 Q 548.506 255.446 548.413 254.965 Q 548.321 254.484 548.703 253.806 Q 549.085 253.128 549.619 252.678 Q 550.153 252.228 550.630 252.022 Q 551.108 251.816 551.409 251.774 Q 551.710 251.731 551.962 251.747 Q 552.215 251.762 552.421 251.859 Q 552.628 251.957 552.719 252.114 Q 552.810 252.272 552.821 252.282 Q 552.833 252.293 552.862 252.555 Q 552.891 252.818 552.752 253.184 Q 552.614 253.550 552.200 253.909 Q 551.787 254.268 551.543 254.392 Q 551.298 254.516 550.825 254.591 Q 550.352 254.665 550.082 254.597 Q 549.812 254.529 549.686 254.428 Q 549.560 254.328 549.765 253.368 "></path>
    <path id="STROKE_682CCAC8-A487-4153-A811-1885FEA423D4" opacity="1.000" display="none" fill="none" stroke="#c585b3" stroke-width="3.889" stroke-opacity="1.000" stroke-linecap="round" stroke-linejoin="round" d="M 513.287 178.477 Q 512.299 179.118 511.979 179.587 Q 511.659 180.055 511.469 180.690 Q 511.280 181.325 511.335 182.065 Q 511.389 182.805 511.893 183.144 Q 512.397 183.482 512.924 183.551 Q 513.450 183.620 514.279 183.317 Q 515.108 183.015 516.004 182.129 Q 516.900 181.243 517.372 180.523 Q 517.844 179.804 518.038 178.783 Q 518.231 177.762 518.072 177.148 Q 517.912 176.534 517.495 176.145 Q 517.078 175.755 516.557 175.665 Q 516.036 175.575 515.558 175.653 Q 515.080 175.732 514.642 175.952 Q 514.204 176.172 513.511 176.791 Q 512.819 177.409 512.479 177.948 Q 512.140 178.486 511.939 178.918 Q 511.738 179.350 511.557 180.357 Q 511.376 181.363 511.445 182.097 Q 511.513 182.831 511.821 183.397 Q 512.128 183.963 512.650 184.217 Q 513.171 184.470 513.888 184.391 Q 514.605 184.313 516.207 183.298 Q 517.809 182.283 518.971 181.170 Q 520.133 180.056 520.781 179.028 Q 521.430 178.000 521.242 176.391 Q 520.814 176.217 520.193 176.366 Q 519.571 176.515 518.201 177.767 Q 516.830 179.020 515.876 180.500 Q 514.923 181.980 514.665 183.743 Q 514.820 183.886 515.822 182.911 Q 516.824 181.935 517.400 180.795 Q 517.977 179.655 518.098 178.872 Q 518.220 178.089 518.166 177.648 Q 518.113 177.207 517.998 176.980 Q 517.883 176.752 517.514 176.613 Q 517.145 176.473 516.381 176.723 Q 515.616 176.972 514.721 177.845 Q 513.826 178.718 513.066 179.915 Q 512.305 181.112 512.267 183.142 Q 512.642 183.288 513.991 181.782 Q 515.341 180.275 515.686 178.140 Q 515.560 178.077 514.437 179.672 Q 513.315 181.266 512.981 183.907 Q 513.308 184.159 514.513 182.991 Q 515.717 181.823 516.364 180.781 Q 517.011 179.740 517.245 179.096 Q 517.479 178.452 517.536 177.825 Q 517.592 177.198 517.543 176.872 Q 517.494 176.546 517.433 176.461 Q 517.373 176.375 517.033 176.149 Q 516.693 175.923 515.889 176.522 Q 515.084 177.121 514.603 177.753 Q 514.121 178.385 513.367 179.624 Q 512.613 180.863 512.170 182.074 Q 511.728 183.284 512.039 184.322 Q 512.185 184.426 512.879 184.484 Q 513.573 184.543 516.221 183.096 Q 518.869 181.649 520.213 180.702 Q 521.556 179.755 522.150 179.057 Q 522.743 178.360 522.801 178.177 Q 522.859 177.993 522.838 177.735 Q 522.816 177.477 522.274 177.270 Q 521.732 177.063 520.872 177.166 Q 520.013 177.270 518.760 178.026 Q 517.508 178.782 516.631 179.809 Q 515.753 180.836 515.391 181.587 Q 515.029 182.338 514.964 182.956 Q 514.899 183.574 515.057 184.006 Q 515.215 184.438 515.611 184.585 Q 516.006 184.733 517.124 184.341 Q 518.242 183.950 519.300 183.135 Q 520.357 182.319 521.005 181.497 Q 521.653 180.675 521.837 179.856 Q 522.021 179.037 521.743 178.475 Q 521.466 177.914 521.056 177.587 Q 520.645 177.260 519.896 177.034 Q 519.147 176.808 518.124 177.002 Q 517.100 177.197 515.696 178.594 Q 514.293 179.991 513.693 181.027 Q 513.093 182.063 513.102 183.819 Q 513.143 183.938 514.300 184.400 Q 515.457 184.863 516.573 184.721 Q 517.688 184.580 518.181 184.320 Q 518.673 184.060 519.036 183.727 Q 519.399 183.394 519.508 182.962 Q 519.616 182.530 519.396 182.061 Q 519.176 181.592 518.342 180.988 Q 517.508 180.384 516.576 180.151 Q 515.644 179.917 514.884 179.967 Q 514.124 180.017 513.277 180.639 Q 512.431 181.261 512.186 181.481 "></path>
    <path id="STROKE_3F61EC95-9342-4F6F-AE09-BCB274C41CD7" opacity="1.000" display="none" fill="none" stroke="#c585b3" stroke-width="3.505" stroke-opacity="1.000" stroke-linecap="round" stroke-linejoin="round" d="M 518.400 178.310 Q 518.105 178.067 517.611 177.825 Q 517.116 177.583 516.597 177.483 Q 516.078 177.383 515.674 177.442 Q 515.269 177.501 514.950 177.667 Q 514.631 177.833 513.752 178.659 Q 512.874 179.485 512.386 180.410 Q 511.898 181.335 511.796 182.105 Q 511.694 182.876 511.862 183.427 Q 512.030 183.978 512.184 184.180 Q 512.338 184.382 512.650 184.685 Q 512.963 184.987 513.815 185.264 Q 514.668 185.541 515.368 185.513 Q 516.068 185.484 517.004 185.143 Q 517.940 184.801 519.493 183.559 Q 521.045 182.317 521.941 181.228 Q 522.838 180.139 523.237 179.126 Q 523.636 178.113 523.621 177.490 Q 523.607 176.867 523.362 176.469 Q 523.117 176.072 521.803 175.803 Q 520.490 175.533 519.227 175.699 Q 517.965 175.865 516.752 176.402 Q 515.539 176.940 514.716 177.548 Q 513.893 178.156 513.312 178.788 Q 512.730 179.419 512.221 180.330 Q 511.712 181.241 511.585 182.218 Q 511.458 183.195 511.580 183.819 Q 511.701 184.444 512.073 184.926 Q 512.445 185.407 513.464 185.714 Q 514.482 186.021 515.587 185.855 Q 516.691 185.689 518.263 184.772 Q 519.834 183.854 520.779 182.944 Q 521.723 182.033 522.259 181.233 Q 522.795 180.433 522.986 179.417 Q 523.177 178.400 523.092 177.824 Q 523.008 177.248 522.666 176.805 Q 522.324 176.361 521.308 176.031 Q 520.293 175.701 519.111 175.726 Q 517.929 175.751 516.453 176.350 Q 514.977 176.949 513.638 178.033 Q 512.298 179.117 511.643 179.935 Q 510.987 180.754 510.759 181.378 Q 510.532 182.003 510.532 182.472 Q 510.532 182.940 511.849 183.285 Q 513.166 183.630 513.675 183.671 "></path>
    <path id="STROKE_F5FBBC31-59F4-4B33-88DD-936FF9D611E7" opacity="1.000" display="none" fill="none" stroke="#c585b3" stroke-width="3.653" stroke-opacity="1.000" stroke-linecap="round" stroke-linejoin="round" d="M 550.714 250.817 Q 550.500 250.417 550.321 250.209 Q 550.141 250.001 549.985 249.963 Q 549.830 249.924 548.966 250.352 Q 548.102 250.780 547.399 251.655 Q 546.697 252.529 546.382 253.218 Q 546.068 253.906 545.965 254.305 Q 545.862 254.704 545.864 255.314 Q 545.866 255.924 545.948 256.307 Q 546.029 256.690 546.216 257.065 Q 546.403 257.439 546.833 257.879 Q 547.262 258.319 548.033 258.504 Q 548.803 258.689 549.386 258.642 Q 549.969 258.596 551.173 257.986 Q 552.378 257.376 553.650 256.143 Q 554.921 254.910 555.403 254.189 Q 555.886 253.468 556.051 252.888 Q 556.216 252.308 556.158 251.921 Q 556.099 251.535 555.630 250.969 Q 555.160 250.404 554.183 249.995 Q 553.207 249.587 552.132 249.553 Q 551.058 249.518 549.759 250.044 Q 548.460 250.570 547.329 251.476 Q 546.199 252.382 545.128 253.710 Q 544.057 255.039 543.550 255.969 Q 543.044 256.900 542.893 257.682 Q 542.743 258.464 542.804 258.896 Q 542.866 259.329 543.050 259.608 Q 543.234 259.888 544.535 260.264 Q 545.836 260.639 546.893 260.589 Q 547.951 260.540 549.047 260.265 Q 550.143 259.991 551.823 259.046 Q 553.502 258.100 554.424 257.314 Q 555.346 256.528 555.787 256.060 Q 556.228 255.593 556.800 254.733 Q 557.371 253.874 557.559 253.043 Q 557.747 252.212 557.635 251.668 Q 557.523 251.125 557.366 250.879 Q 557.209 250.633 556.960 250.450 Q 556.710 250.266 555.757 250.070 Q 554.804 249.873 553.146 250.495 Q 551.488 251.118 550.101 252.050 Q 548.714 252.982 547.968 253.834 Q 547.222 254.686 547.163 255.530 Q 548.859 255.901 550.003 255.415 Q 551.148 254.928 551.686 254.427 Q 552.224 253.926 552.445 253.576 Q 552.666 253.227 552.780 252.785 Q 552.893 252.343 552.688 251.596 Q 552.482 250.848 552.025 250.426 Q 551.569 250.005 551.180 249.873 Q 550.792 249.740 550.195 249.764 Q 549.598 249.788 548.512 250.701 Q 547.426 251.614 546.429 253.362 Q 545.431 255.111 545.282 256.997 Q 545.334 257.152 546.229 257.273 Q 547.124 257.393 547.885 257.202 Q 548.647 257.012 549.312 256.793 "></path>
    <path id="STROKE_4F09123B-ED3B-41F7-A643-DE979238B772" opacity="1.000" display="none" fill="none" stroke="#c585b3" stroke-width="3.359" stroke-opacity="1.000" stroke-linecap="round" stroke-linejoin="round" d="M 516.013 176.880 Q 516.110 176.838 516.495 175.476 Q 516.150 175.371 515.519 175.461 Q 514.888 175.551 513.913 176.443 Q 512.938 177.334 512.623 177.965 Q 512.307 178.596 512.443 179.337 Q 512.778 179.539 513.722 179.601 Q 514.667 179.662 515.279 179.658 "></path>
    <path id="STROKE_2637E758-758E-4E3D-80F0-CD6F6688EEFD" opacity="1.000" display="none" fill="none" stroke="#c585b3" stroke-width="3.428" stroke-opacity="1.000" stroke-linecap="round" stroke-linejoin="round" d="M 455.729 164.927 Q 455.791 164.820 455.978 164.660 Q 456.164 164.499 456.574 164.252 Q 456.983 164.005 457.358 163.766 Q 457.732 163.526 458.282 163.158 "></path>
  </g>
  <g id="New_Layer_1" opacity="1.000">
    <path id="STROKE_ABFEA4AE-9EB7-4785-9543-AF39E8800B5A" opacity="1.000" fill="none" stroke="#c585b3" stroke-width="3.467" stroke-opacity="1.000" stroke-linecap="round" stroke-linejoin="round" d="M 445.106 250.115 Q 444.790 250.512 444.376 250.891 Q 443.962 251.270 442.781 253.440 Q 441.600 255.609 440.427 257.595 Q 439.253 259.581 438.288 260.830 Q 437.322 262.080 435.648 264.407 Q 433.973 266.735 432.393 269.067 Q 430.814 271.399 430.049 272.597 Q 429.284 273.795 428.546 275.203 Q 427.807 276.612 426.513 279.141 Q 425.219 281.669 423.553 284.439 Q 421.887 287.210 420.753 289.232 Q 420.997 289.474 422.655 289.396 Q 424.313 289.317 428.185 288.810 Q 432.057 288.302 434.686 287.868 Q 437.315 287.435 439.609 287.025 Q 441.904 286.615 443.098 286.404 Q 444.292 286.194 447.427 285.564 Q 450.563 284.934 455.863 284.137 Q 461.163 283.339 463.799 283.043 Q 466.434 282.746 471.132 282.487 Q 475.829 282.227 481.520 281.822 Q 487.211 281.416 490.061 281.193 Q 492.910 280.971 494.394 280.845 Q 495.877 280.719 500.056 280.307 Q 504.235 279.896 507.360 279.593 Q 510.485 279.291 512.176 279.116 Q 513.867 278.941 521.176 278.440 Q 528.486 277.939 532.504 277.744 Q 536.523 277.549 539.998 277.422 Q 543.473 277.295 547.830 277.283 Q 552.186 277.270 555.124 277.318 Q 558.062 277.365 559.717 277.387 Q 561.372 277.409 564.823 277.296 Q 568.273 277.182 570.103 277.151 Q 571.932 277.120 573.165 277.289 Q 574.397 277.458 576.430 278.263 L 577.188 278.736 "></path>
    <path id="STROKE_9DEF9E17-AAB4-49CA-8FF2-3D66AC2E2BC5" opacity="1.000" fill="none" stroke="#c585b3" stroke-width="3.518" stroke-opacity="1.000" stroke-linecap="round" stroke-linejoin="round" d="M 448.509 247.882 Q 449.767 247.641 451.307 247.617 Q 452.847 247.592 454.187 247.566 Q 455.527 247.540 456.839 247.533 Q 458.152 247.526 462.213 247.345 Q 466.274 247.163 468.490 246.938 Q 470.707 246.712 475.249 246.144 Q 479.791 245.576 484.500 244.957 Q 489.209 244.339 493.115 243.865 Q 497.021 243.390 499.239 243.135 Q 501.458 242.880 504.361 242.553 Q 507.264 242.226 508.895 242.022 Q 510.526 241.818 514.375 241.479 Q 518.224 241.140 520.505 241.002 Q 522.787 240.865 528.280 240.886 Q 533.773 240.907 537.081 240.981 Q 540.388 241.055 542.935 240.848 Q 545.482 240.640 547.046 240.420 Q 548.609 240.200 549.574 240.041 Q 550.539 239.881 554.680 239.137 Q 558.822 238.393 560.185 238.122 Q 561.547 237.850 562.372 237.686 "></path>
    <path id="STROKE_6519C4AA-A6A1-4332-B6BF-C3238515B24F" opacity="1.000" fill="none" stroke="#c585b3" stroke-width="3.765" stroke-opacity="1.000" stroke-linecap="round" stroke-linejoin="round" d="M 576.736 237.223 Q 576.739 237.241 576.747 237.298 Q 576.756 237.356 576.918 237.789 Q 577.080 238.222 577.222 238.579 Q 577.364 238.935 577.926 240.408 Q 578.488 241.880 578.933 243.052 Q 579.379 244.223 580.335 246.737 Q 581.292 249.250 582.237 251.114 Q 583.182 252.977 583.899 254.201 Q 584.615 255.426 586.002 257.893 Q 587.389 260.360 589.390 263.831 Q 591.391 267.303 592.377 269.085 Q 593.363 270.866 593.978 271.890 Q 594.593 272.914 594.963 273.669 Q 595.333 274.424 595.117 274.583 Q 594.742 274.751 593.450 275.398 Q 592.157 276.046 589.427 276.858 Q 586.697 277.671 584.868 277.974 Q 583.039 278.277 581.988 278.402 Q 580.936 278.526 579.526 278.638 Q 578.115 278.751 575.096 278.732 Q 572.077 278.713 569.870 278.784 Q 567.662 278.856 566.314 279.578 "></path>
    <path id="STROKE_7548C5E4-D71C-45DA-A7EA-A362F233E3AA" opacity="1.000" fill="none" stroke="#c585b3" stroke-width="3.630" stroke-opacity="1.000" stroke-linecap="round" stroke-linejoin="round" d="M 454.894 234.431 Q 455.714 234.306 459.365 233.873 Q 463.016 233.441 465.375 233.284 Q 467.735 233.128 469.511 232.979 Q 471.287 232.831 472.501 232.750 Q 473.714 232.669 478.382 232.137 Q 483.049 231.605 485.861 231.142 Q 488.672 230.679 490.805 230.272 Q 492.938 229.864 497.609 228.748 Q 502.280 227.633 504.746 226.989 Q 507.211 226.345 511.802 225.317 Q 516.392 224.290 518.728 223.809 Q 521.064 223.329 525.070 222.587 Q 529.075 221.845 532.218 221.295 Q 535.361 220.745 539.754 220.095 Q 544.148 219.445 551.016 218.983 "></path>
    <path id="STROKE_D8F14B9E-C640-48E6-8F6F-94097F6AF5CD" opacity="1.000" fill="none" stroke="#c585b3" stroke-width="3.624" stroke-opacity="1.000" stroke-linecap="round" stroke-linejoin="round" d="M 451.690 203.745 Q 452.118 203.757 453.847 203.719 Q 455.577 203.681 457.336 203.501 Q 459.094 203.322 461.377 202.994 Q 463.660 202.666 479.814 200.490 Q 495.967 198.315 500.841 197.557 Q 505.715 196.799 508.127 196.451 Q 510.540 196.103 512.292 195.885 Q 514.044 195.667 515.651 195.500 Q 517.259 195.333 521.285 194.992 Q 525.311 194.650 528.106 194.475 Q 530.900 194.300 538.832 194.030 Q 546.765 193.760 550.100 193.262 Q 553.435 192.764 555.045 192.437 Q 556.655 192.111 558.737 191.748 Q 560.819 191.385 562.661 191.076 Q 564.504 190.767 564.981 190.735 "></path>
    <path id="STROKE_35AFACFA-FBC7-49A5-85B2-0DD61DEDDC9E" opacity="1.000" fill="none" stroke="#c585b3" stroke-width="3.558" stroke-opacity="1.000" stroke-linecap="round" stroke-linejoin="round" d="M 567.360 196.691 Q 567.368 197.038 567.421 198.067 Q 567.474 199.095 567.584 201.824 Q 567.695 204.552 567.703 204.633 "></path>
    <path id="STROKE_F1ADBE1D-1A15-417A-8804-DA2452F26CA5" opacity="1.000" fill="none" stroke="#c585b3" stroke-width="3.825" stroke-opacity="1.000" stroke-linecap="round" stroke-linejoin="round" d="M 451.234 185.662 Q 451.329 185.412 451.558 184.741 Q 451.787 184.071 453.452 181.849 Q 455.116 179.628 456.632 177.718 Q 458.148 175.808 460.526 172.657 Q 462.904 169.505 464.868 166.834 Q 466.832 164.163 467.810 162.798 Q 468.787 161.433 469.667 160.087 Q 470.548 158.742 473.008 155.244 Q 475.469 151.746 477.128 149.390 Q 478.786 147.035 480.666 144.408 Q 482.546 141.781 483.701 140.275 Q 484.857 138.770 487.554 135.652 Q 490.252 132.535 491.696 130.965 Q 493.140 129.394 495.460 126.774 Q 497.780 124.155 499.854 121.518 Q 501.927 118.881 502.976 117.498 Q 504.024 116.115 504.809 114.833 Q 505.594 113.552 506.131 112.766 Q 506.668 111.979 507.400 111.615 Q 508.133 111.251 508.615 111.260 Q 509.097 111.269 509.591 111.608 Q 510.085 111.947 510.597 112.478 Q 511.109 113.008 511.626 113.628 Q 512.142 114.248 514.088 117.397 Q 516.034 120.546 517.304 122.596 Q 518.573 124.646 520.308 126.923 Q 522.043 129.201 523.172 130.630 Q 524.301 132.060 524.939 132.859 Q 525.578 133.658 527.563 135.829 Q 529.548 138.000 531.575 140.254 Q 533.602 142.508 534.941 144.124 Q 536.280 145.739 536.982 146.627 Q 537.684 147.515 538.365 148.398 Q 539.046 149.281 540.570 151.572 Q 542.094 153.864 542.870 155.238 Q 543.645 156.612 544.593 158.439 Q 545.542 160.266 546.166 161.476 Q 546.789 162.686 548.189 165.238 Q 549.589 167.789 550.676 169.642 Q 551.763 171.495 552.979 172.961 Q 554.196 174.427 555.501 175.215 Q 556.150 174.990 556.143 175.027 Q 556.137 175.064 556.224 175.111 "></path>
    <path id="STROKE_0D82ECC0-C826-4CE0-8F44-37EAE92CC96C" opacity="1.000" fill="none" stroke="#c585b3" stroke-width="4.189" stroke-opacity="1.000" stroke-linecap="round" stroke-linejoin="round" d="M 452.240 188.159 Q 452.631 187.966 452.807 187.826 Q 452.983 187.685 454.320 187.097 Q 455.657 186.508 457.102 186.095 Q 458.546 185.681 459.977 185.332 Q 461.408 184.982 462.960 184.680 Q 464.511 184.379 466.329 184.105 Q 468.146 183.832 469.867 183.632 Q 471.587 183.432 474.577 183.023 Q 477.566 182.615 481.263 182.026 Q 484.960 181.437 489.717 180.685 Q 494.473 179.934 500.118 179.031 Q 505.762 178.128 508.698 177.661 Q 511.634 177.195 515.843 176.485 Q 520.053 175.775 522.155 175.384 Q 524.257 174.994 526.377 174.619 Q 528.497 174.245 532.922 173.313 Q 537.348 172.380 539.983 171.686 Q 542.618 170.991 543.931 170.621 Q 545.243 170.251 546.624 169.995 Q 548.006 169.739 548.905 169.733 L 549.331 169.901 L 549.545 169.942 L 549.826 169.933 Q 549.860 169.956 550.199 169.863 Q 550.538 169.770 551.024 169.722 "></path>
    <path id="STROKE_2D157547-6D38-4445-810A-EDBC7C381C80" opacity="1.000" fill="none" stroke="#c585b3" stroke-width="3.468" stroke-opacity="1.000" stroke-linecap="round" stroke-linejoin="round" d="M 564.041 236.646 Q 564.171 236.655 564.230 236.622 Q 564.687 236.338 567.073 236.261 Q 569.459 236.185 571.604 236.110 Q 573.750 236.035 574.440 236.039 Q 575.131 236.043 575.815 236.085 "></path>
    <path id="STROKE_CF43A425-6622-4292-ACC6-8547B246A75B" opacity="1.000" fill="none" stroke="#c585b3" stroke-width="3.432" stroke-opacity="1.000" stroke-linecap="round" stroke-linejoin="round" d="M 450.471 203.619 L 450.371 203.649 Q 449.941 203.886 448.696 208.317 Q 447.452 212.748 446.958 216.088 Q 446.464 219.427 446.316 220.980 Q 446.169 222.532 445.959 223.626 Q 445.749 224.719 445.527 225.743 Q 445.305 226.766 445.251 227.136 Q 445.196 227.506 445.168 228.161 Q 445.140 228.815 445.147 228.919 Q 445.154 229.024 445.133 229.252 Q 445.112 229.480 445.763 231.743 Q 445.816 231.778 447.271 232.321 Q 448.725 232.865 449.992 233.029 Q 451.259 233.194 453.053 233.158 Q 454.847 233.123 455.788 233.037 Q 456.728 232.951 459.151 233.021 Q 461.574 233.090 463.163 233.495 Q 464.752 233.900 465.452 234.122 "></path>
    <path id="STROKE_BB1CBE8F-9F06-4FFA-90B1-40FA78CE6FD0" opacity="1.000" fill="none" stroke="#c585b3" stroke-width="3.756" stroke-opacity="1.000" stroke-linecap="round" stroke-linejoin="round" d="M 562.883 209.094 Q 562.580 209.482 561.035 210.868 Q 559.491 212.254 558.870 212.767 "></path>
    <path id="STROKE_F6FB6A50-E668-4C1B-BB14-3ADDE1BDA9E8" opacity="1.000" fill="none" stroke="#c585b3" stroke-width="3.482" stroke-opacity="1.000" stroke-linecap="round" stroke-linejoin="round" d="M 543.184 219.752 Q 543.234 219.750 544.122 219.323 Q 545.009 218.896 549.130 218.159 Q 553.252 217.421 555.570 217.043 Q 557.887 216.664 559.854 216.604 Q 561.820 216.545 562.903 216.647 Q 563.986 216.749 565.286 216.832 Q 566.587 216.916 567.437 216.880 Q 568.287 216.843 568.908 216.764 Q 569.530 216.685 569.599 216.630 Q 569.668 216.575 569.891 216.453 Q 570.114 216.331 570.124 216.321 Q 570.134 216.310 570.449 216.183 Q 570.765 216.055 572.213 214.987 Q 572.246 214.876 572.112 214.793 Q 571.979 214.710 571.585 214.485 Q 571.192 214.260 570.747 213.810 Q 570.302 213.361 570.073 213.044 Q 569.844 212.727 569.381 211.506 Q 568.918 210.286 568.728 209.454 Q 568.538 208.622 568.331 207.292 Q 568.124 205.962 567.957 203.274 Q 567.790 200.586 567.792 198.219 Q 567.795 195.852 567.720 194.474 Q 567.645 193.096 567.155 192.127 Q 566.809 192.141 565.330 192.063 Q 563.852 191.985 562.363 192.053 Q 560.874 192.122 559.081 192.807 Q 557.288 193.493 556.619 193.828 "></path>
    <path id="STROKE_D02B8571-ED98-4623-A9F0-50A84E59916C" opacity="1.000" fill="none" stroke="#c585b3" stroke-width="3.691" stroke-opacity="1.000" stroke-linecap="round" stroke-linejoin="round" d="M 445.415 212.179 Q 445.664 211.704 447.329 210.643 Q 448.994 209.583 449.630 209.234 "></path>
    <path id="STROKE_E573C2CD-2882-444B-B36D-CB0AFA36C532" opacity="1.000" fill="none" stroke="#c585b3" stroke-width="3.653" stroke-opacity="1.000" stroke-linecap="round" stroke-linejoin="round" d="M 461.317 215.572 Q 461.395 215.562 461.814 215.339 Q 462.232 215.116 463.130 214.779 Q 463.156 214.730 461.544 215.079 Q 459.932 215.428 458.296 215.903 Q 458.313 215.973 461.276 214.515 Q 464.240 213.056 466.674 211.899 Q 469.109 210.742 471.746 209.660 Q 474.383 208.578 477.674 207.369 Q 480.966 206.160 484.517 204.959 Q 488.069 203.758 490.055 203.132 Q 492.042 202.506 495.618 201.476 Q 499.194 200.446 502.021 199.913 Q 504.847 199.380 506.381 199.286 Q 507.915 199.192 508.732 199.300 Q 509.548 199.409 509.980 199.678 Q 510.411 199.948 510.537 200.224 Q 510.663 200.501 510.708 200.771 Q 510.753 201.041 510.180 201.857 Q 509.606 202.673 508.439 203.467 Q 507.271 204.261 505.922 204.972 Q 504.572 205.683 495.192 209.194 Q 485.812 212.705 480.927 214.550 Q 476.042 216.396 473.885 217.181 Q 471.728 217.967 469.766 218.783 Q 467.805 219.599 466.643 220.129 Q 465.481 220.659 464.408 221.325 Q 463.336 221.992 462.773 222.966 Q 463.178 223.483 468.251 222.285 Q 473.323 221.087 476.391 220.026 Q 479.458 218.965 481.151 218.408 Q 482.845 217.851 486.914 216.427 Q 490.983 215.002 493.812 213.873 Q 496.642 212.744 501.930 210.729 Q 507.219 208.715 509.854 207.791 Q 512.490 206.868 513.749 206.412 Q 515.007 205.956 517.280 205.159 Q 519.553 204.362 521.198 203.785 Q 522.844 203.208 525.305 202.386 Q 527.767 201.565 530.005 200.933 Q 532.244 200.301 535.253 200.307 Q 535.570 200.868 531.033 203.312 Q 526.497 205.756 523.147 206.990 Q 519.797 208.225 518.278 208.737 Q 516.760 209.250 508.027 212.288 Q 499.294 215.326 496.405 216.322 Q 493.516 217.318 492.168 217.788 Q 490.819 218.259 487.239 219.668 Q 483.659 221.076 480.528 222.391 Q 477.397 223.706 473.792 225.810 Q 473.978 226.159 481.032 224.459 Q 488.085 222.759 492.236 221.473 Q 496.387 220.188 498.311 219.575 Q 500.236 218.962 501.531 218.558 Q 502.827 218.153 506.419 216.961 Q 510.010 215.769 518.699 212.851 Q 527.389 209.933 531.807 208.548 Q 536.226 207.164 538.609 206.460 Q 540.993 205.756 542.214 205.385 Q 543.435 205.013 545.103 204.710 Q 546.772 204.406 547.970 204.616 Q 548.234 205.169 542.933 207.226 Q 537.633 209.283 533.519 210.746 Q 529.405 212.209 526.318 213.385 Q 523.231 214.561 522.418 214.872 Q 521.605 215.183 520.344 215.645 Q 519.083 216.107 516.075 217.357 Q 513.068 218.608 511.553 219.306 Q 510.039 220.004 509.189 220.646 Q 508.338 221.288 508.065 221.944 Q 508.220 222.257 511.318 222.232 Q 514.416 222.207 516.271 221.825 Q 518.127 221.443 523.614 219.992 Q 529.102 218.540 532.132 217.680 Q 535.163 216.820 536.570 216.416 Q 537.978 216.011 540.551 215.217 Q 543.124 214.423 546.777 213.223 Q 550.430 212.022 552.300 211.394 Q 554.170 210.767 555.632 210.268 Q 557.093 209.770 558.829 209.164 Q 560.565 208.559 561.418 208.237 Q 561.429 208.206 554.870 210.052 Q 548.311 211.898 544.440 213.163 Q 540.569 214.429 537.605 215.413 Q 534.642 216.397 531.634 218.249 Q 531.729 218.366 533.293 218.315 Q 534.858 218.264 541.325 216.696 Q 547.793 215.128 564.419 209.395 Q 564.387 209.192 557.051 210.142 Q 549.715 211.092 545.396 211.805 Q 541.077 212.517 537.943 213.172 Q 534.808 213.826 532.878 214.057 Q 530.949 214.288 530.172 214.271 Q 529.395 214.254 528.862 214.058 Q 528.329 213.861 528.185 213.488 Q 528.041 213.115 528.402 212.420 Q 528.764 211.725 530.088 210.679 Q 531.413 209.633 535.226 207.506 Q 539.039 205.380 543.737 202.737 Q 548.436 200.095 550.807 198.758 Q 553.178 197.421 555.103 196.141 Q 557.027 194.861 557.838 194.088 Q 558.649 193.314 558.911 192.637 Q 558.786 192.292 555.259 193.146 Q 551.732 194.001 547.580 195.556 Q 543.427 197.112 541.059 197.978 Q 538.691 198.845 534.373 200.581 Q 530.056 202.316 525.520 204.852 Q 525.482 205.033 532.500 202.317 Q 539.519 199.601 543.553 197.916 Q 547.586 196.230 549.747 195.239 Q 551.908 194.247 557.746 191.737 Q 557.728 191.784 554.306 193.218 Q 550.883 194.653 542.505 197.366 Q 534.127 200.079 529.891 201.391 Q 525.654 202.702 523.394 203.484 Q 521.134 204.266 519.521 204.838 Q 517.907 205.410 513.670 206.807 Q 509.433 208.203 506.977 208.880 Q 504.520 209.558 503.325 209.728 Q 502.130 209.898 500.862 209.615 Q 500.741 209.236 502.402 208.118 Q 504.062 207.001 509.256 204.513 Q 514.451 202.025 517.188 200.831 Q 519.926 199.637 521.102 199.103 Q 522.279 198.569 522.957 198.086 Q 522.904 197.988 519.508 198.770 Q 516.111 199.552 511.545 201.101 Q 506.980 202.651 504.295 203.646 Q 501.610 204.642 499.127 205.594 Q 496.645 206.545 494.775 207.244 Q 492.906 207.943 489.148 209.452 Q 485.391 210.960 483.392 211.810 Q 481.393 212.659 478.028 214.009 Q 474.664 215.359 471.078 215.878 Q 470.752 215.585 474.580 212.979 Q 478.408 210.373 481.022 208.651 Q 483.637 206.929 484.786 206.067 Q 485.935 205.205 486.472 204.532 Q 487.009 203.859 487.144 203.249 Q 486.909 202.803 482.354 204.401 Q 477.798 205.998 474.736 207.308 Q 471.673 208.618 470.118 209.288 Q 468.563 209.959 463.111 212.518 Q 457.659 215.078 449.911 218.781 Q 451.931 217.420 453.081 216.702 Q 454.232 215.983 458.008 213.320 Q 461.783 210.657 463.931 209.084 Q 466.078 207.511 467.370 206.385 Q 468.661 205.259 469.115 204.147 Q 469.039 203.970 467.516 204.464 Q 465.993 204.958 464.236 205.911 Q 462.479 206.863 461.253 207.558 Q 460.027 208.252 457.727 209.630 Q 455.426 211.008 451.244 214.000 Q 451.294 213.985 457.289 210.258 Q 463.285 206.531 470.907 201.340 Q 470.970 201.315 467.747 203.170 Q 464.523 205.025 461.341 207.059 Q 458.158 209.093 456.329 210.444 Q 454.500 211.795 453.630 212.749 Q 452.760 213.703 452.611 214.880 Q 453.054 215.302 456.831 213.911 Q 460.608 212.520 463.028 211.296 Q 465.447 210.072 467.033 209.473 Q 468.619 208.873 469.878 209.044 Q 470.045 209.447 469.538 210.562 Q 469.030 211.677 466.240 214.153 Q 463.449 216.630 461.756 217.924 Q 460.064 219.218 459.171 219.885 Q 458.278 220.553 456.783 221.614 Q 455.288 222.675 448.314 228.570 Q 448.513 228.601 448.801 228.533 Q 449.089 228.464 452.424 226.778 Q 455.759 225.092 457.684 224.039 Q 459.609 222.986 461.118 222.088 Q 462.626 221.191 464.517 220.088 Q 466.407 218.986 469.578 217.288 Q 472.748 215.591 474.890 214.507 Q 477.032 213.423 478.504 212.705 Q 479.977 211.986 480.954 211.535 Q 481.932 211.084 483.873 210.217 Q 485.815 209.351 488.921 208.720 Q 488.965 208.797 488.891 208.972 Q 488.818 209.147 486.630 210.665 Q 484.442 212.184 482.852 213.143 Q 481.263 214.102 478.915 215.526 Q 476.567 216.951 474.692 218.141 Q 472.818 219.332 470.804 220.899 Q 468.790 222.466 467.749 223.531 Q 466.707 224.595 466.448 225.632 Q 466.791 226.059 470.777 225.045 Q 474.764 224.030 480.346 221.815 Q 485.928 219.599 487.419 219.016 Q 488.910 218.433 489.874 218.070 Q 490.838 217.707 491.997 217.282 Q 493.156 216.858 496.707 215.514 Q 500.258 214.170 502.117 213.446 Q 503.977 212.722 507.371 211.442 Q 510.765 210.162 515.894 208.388 Q 521.024 206.615 523.513 205.780 Q 526.001 204.946 527.300 204.909 Q 527.315 205.052 526.425 205.799 Q 525.535 206.546 523.243 207.697 Q 520.951 208.847 514.990 211.515 Q 509.028 214.182 505.968 215.551 Q 502.908 216.920 501.692 217.624 Q 500.476 218.329 500.135 218.658 Q 499.794 218.987 499.781 219.253 Q 499.898 219.389 501.992 219.398 Q 504.086 219.407 509.028 218.104 Q 513.971 216.802 516.545 215.986 Q 519.120 215.171 521.094 214.498 Q 523.068 213.826 525.030 213.140 Q 526.991 212.454 529.839 211.467 Q 532.686 210.480 534.171 209.984 Q 535.655 209.488 536.585 209.183 Q 537.514 208.878 542.846 207.319 Q 548.178 205.759 551.297 204.926 Q 554.416 204.092 555.872 204.120 Q 555.896 204.326 553.416 205.839 Q 550.937 207.353 548.539 208.756 Q 546.141 210.158 545.063 210.951 Q 543.985 211.744 543.653 212.220 Q 543.736 212.306 547.904 210.849 Q 552.072 209.392 555.338 208.388 Q 558.603 207.385 560.234 207.066 Q 561.866 206.748 562.633 206.871 Q 562.668 206.968 561.936 207.449 Q 561.204 207.929 559.807 208.761 Q 558.410 209.592 557.612 210.288 Q 556.814 210.983 556.600 211.785 Q 556.931 212.230 560.097 211.591 Q 563.263 210.953 565.230 210.129 Q 567.197 209.305 568.018 208.806 Q 568.839 208.307 569.066 208.042 Q 569.294 207.777 569.388 207.519 Q 569.482 207.260 569.313 206.951 Q 569.144 206.642 567.405 206.090 Q 565.667 205.537 563.445 205.204 Q 561.224 204.872 559.679 204.380 Q 558.134 203.887 557.490 203.503 Q 556.846 203.119 556.556 202.785 Q 556.265 202.450 556.210 202.055 Q 556.155 201.660 556.221 201.380 Q 556.288 201.100 558.132 199.539 Q 559.977 197.977 561.338 196.934 Q 562.698 195.890 563.278 194.968 Q 563.175 194.848 561.901 195.123 Q 560.627 195.398 559.850 195.833 Q 559.074 196.269 558.775 196.553 Q 558.476 196.837 558.373 197.167 Q 558.271 197.497 558.545 197.988 Q 558.820 198.480 559.151 198.904 "></path>
  </g>
</svg>